<svg xmlns="http://www.w3.org/2000/svg" direction="ltr" width="1000" height="1000" viewBox="-2041 499 1000 1000" stroke-linecap="round" stroke-linejoin="round" data-color-mode="light" class="tl-container tl-theme__force-sRGB tl-theme__light" style="background-color: transparent;"><defs/><g transform="matrix(1, 0, 0, 1, -2041, 499)" opacity="1"><g data-lovart-layer-name="SVG 3"><g transform="scale(1, 1)"><g>
<g xmlns="http://www.w3.org/2000/svg" stroke-width="2.00" fill="none" stroke-linecap="butt">
<path stroke="#ffd681" vector-effect="non-scaling-stroke" d="   M 118.97 525.54   Q 160.18 565.56 201.43 605.57   Q 209.00 612.90 210.49 623.56   Q 211.18 628.49 209.77 637.40   Q 206.51 658.02 204.46 669.69   Q 183.30 789.92 168.41 876.62   C 165.95 890.93 169.01 908.63 177.92 921.61   Q 181.92 927.43 184.07 929.67   Q 200.96 947.21 225.61 949.03"/>
<path stroke="#ffcc81" vector-effect="non-scaling-stroke" d="   M 225.61 949.03   Q 247.65 950.35 265.89 940.38   Q 372.23 882.27 480.82 823.03   Q 490.93 817.52 495.55 816.61   Q 507.34 814.28 518.28 820.26   C 583.04 855.70 635.98 884.42 724.08 932.65   Q 740.30 941.53 743.75 943.05   C 762.01 951.09 784.01 951.44 801.91 942.68   C 827.14 930.31 840.26 903.38 835.53 875.49   C 827.64 828.96 816.78 765.66 806.04 705.46   Q 799.58 669.28 794.59 638.78   Q 792.86 628.22 793.65 623.21   Q 795.34 612.64 802.72 605.46   Q 951.43 460.96 964.92 448.03   C 975.20 438.18 981.56 430.20 985.82 417.88   C 994.15 393.75 987.42 367.01 967.70 350.45"/>
<path stroke="#ffd681" vector-effect="non-scaling-stroke" d="   M 967.70 350.45   Q 959.23 343.24 949.10 339.37   Q 942.87 336.98 927.91 334.72   Q 809.57 316.78 692.69 300.22   Q 683.66 298.94 680.91 297.55   Q 675.41 294.78 670.83 290.67   Q 668.29 288.40 663.84 279.50   Q 629.87 211.68 596.29 143.72"/>
<path stroke="#ffe382" vector-effect="non-scaling-stroke" d="   M 596.29 143.72   Q 581.39 113.93 566.64 84.10   Q 560.54 71.77 556.67 66.84   C 527.09 29.17 471.63 30.83 444.81 70.64   Q 442.80 73.62 433.89 91.47   Q 432.92 93.43 423.41 112.57   Q 384.63 190.58 340.75 278.63   Q 336.32 287.52 334.80 289.13   Q 330.60 293.59 325.24 296.66   Q 321.78 298.64 308.88 300.48   Q 208.68 314.78 74.11 335.03   Q 62.61 336.76 57.23 338.58   C 33.58 346.59 16.79 368.22 14.95 392.99   C 13.61 411.08 20.47 429.18 32.95 441.94   C 44.45 453.70 61.43 469.53 73.83 481.67   Q 96.32 503.68 118.97 525.54"/>
<path stroke="#ffbb04" vector-effect="non-scaling-stroke" d="   M 596.29 143.72   C 582.59 140.83 570.31 138.88 556.82 144.38"/>
<path stroke="#ffd018" vector-effect="non-scaling-stroke" d="   M 556.82 144.38   Q 550.05 130.83 543.26 117.46   Q 535.23 101.66 534.82 101.01   C 525.33 86.42 510.39 79.10 492.80 83.29   Q 484.35 85.30 477.77 91.00   Q 470.82 97.04 468.71 101.26   Q 456.87 124.98 434.03 171.07   Q 404.13 231.41 370.81 298.17   Q 363.73 312.34 359.99 316.58   Q 352.25 325.37 340.72 330.40   Q 335.38 332.73 320.97 334.85   Q 276.55 341.40 250.82 345.47   C 236.19 347.78 218.10 349.80 206.01 351.77   Q 149.26 361.00 88.02 369.24   C 77.21 370.69 68.68 373.96 62.21 382.95   Q 56.13 391.40 57.13 401.91   C 58.16 412.73 63.35 420.45 70.89 427.65   Q 74.09 430.72 74.15 430.80   Q 74.74 431.59 122.11 477.89   Q 135.20 490.68 148.34 503.76"/>
<path stroke="#ffbb04" vector-effect="non-scaling-stroke" d="   M 148.34 503.76   C 137.66 510.28 127.18 516.93 118.97 525.54"/>
<path stroke="#ffc317" vector-effect="non-scaling-stroke" d="   M 556.82 144.38   Q 560.24 151.58 563.92 158.77   Q 567.93 166.63 571.08 173.12   Q 579.03 189.52 588.31 207.74   C 591.65 214.31 594.16 220.40 597.09 225.58   Q 599.59 229.98 603.73 238.89   Q 606.52 244.89 613.58 258.40   C 618.64 268.08 622.35 276.41 627.79 287.00   Q 631.71 294.65 637.82 306.93   C 644.12 319.63 657.05 329.52 671.00 332.95   C 676.27 334.24 684.76 334.58 690.16 335.65   Q 695.77 336.77 704.54 337.76   Q 708.22 338.17 727.93 341.11   Q 769.59 347.33 811.18 353.50"/>
<path stroke="#ffd018" vector-effect="non-scaling-stroke" d="   M 811.18 353.50   C 811.04 359.58 807.05 363.48 802.60 366.82   Q 799.33 369.28 789.25 376.68   C 780.79 382.89 774.42 388.79 763.43 398.43   C 757.30 403.81 749.55 408.21 741.26 407.80   Q 735.74 407.53 728.54 405.13   Q 715.76 400.87 702.34 397.75"/>
<path stroke="#ffeb94" vector-effect="non-scaling-stroke" d="   M 702.34 397.75   Q 695.87 390.63 686.48 387.23   C 676.51 383.62 665.17 385.32 656.16 390.66   Q 652.75 392.68 644.76 400.89   Q 624.68 421.52 604.57 442.06"/>
<path stroke="#ffd018" vector-effect="non-scaling-stroke" d="   M 604.57 442.06   Q 584.24 453.58 575.23 457.48   C 553.56 466.86 543.41 470.49 529.50 478.89   Q 509.15 491.19 489.30 505.91   C 479.51 513.18 469.02 522.50 461.01 528.59   C 453.35 534.42 445.01 538.39 435.29 535.57   Q 427.24 533.23 418.82 527.05   C 405.26 517.10 395.64 509.24 381.43 502.11   A 0.03 0.03 0.0 0 0 381.39 502.16   L 386.13 508.92"/>
<path stroke="#ffeb94" vector-effect="non-scaling-stroke" d="   M 386.13 508.92   Q 385.54 508.23 385.01 507.51   Q 379.32 499.80 370.48 495.23   C 359.64 489.62 347.96 490.36 337.15 495.86   Q 332.79 498.09 326.81 504.31   Q 321.09 510.27 316.09 514.97   Q 310.78 519.95 308.65 524.12   C 303.40 534.42 301.72 543.87 305.82 554.74"/>
<path stroke="#ffd018" vector-effect="non-scaling-stroke" d="   M 305.82 554.74   Q 304.09 550.35 301.20 547.27   A 0.52 0.52 0.0 0 0 300.31 547.52   C 298.75 554.84 298.99 561.83 302.39 569.22   Q 306.92 579.09 308.76 581.58   Q 317.97 594.05 320.55 597.89   C 326.10 606.11 331.47 615.59 330.90 624.90   C 330.12 637.56 318.63 645.77 308.09 651.94   Q 290.58 662.18 278.08 669.63   Q 273.40 672.41 269.11 675.40   Q 261.38 680.77 260.43 681.60   Q 247.97 692.46 234.50 702.37"/>
<path stroke="#ffc317" vector-effect="non-scaling-stroke" d="   M 234.50 702.37   Q 244.96 645.40 246.99 630.48   C 248.94 616.12 245.49 600.78 235.75 589.93   Q 227.17 580.37 220.61 574.20   C 209.58 563.83 201.77 555.66 182.95 537.40   C 168.89 523.75 160.32 515.15 148.34 503.76"/>
<path stroke="#ffa403" vector-effect="non-scaling-stroke" d="   M 967.70 350.45   C 957.23 350.90 948.27 353.06 940.25 359.93   Q 934.76 364.64 929.26 372.08"/>
<path stroke="#ffbb04" vector-effect="non-scaling-stroke" d="   M 929.26 372.08   L 924.84 370.38   A 5.00 4.95 59.4 0 0 923.77 370.10   L 811.18 353.50"/>
<path stroke="#ffbb04" vector-effect="non-scaling-stroke" d="   M 931.55 426.66   Q 929.10 427.75 926.92 428.98   Q 886.92 451.53 878.38 456.36   C 873.61 459.06 868.59 462.38 863.96 464.92   C 845.77 474.92 829.13 485.28 810.85 495.98   C 792.92 506.46 778.99 518.07 762.15 531.73   Q 753.37 538.85 744.33 547.31   Q 733.26 557.66 699.79 588.04   Q 694.07 593.24 661.12 624.13   Q 629.29 653.97 604.91 677.41   C 596.22 685.76 589.95 691.15 581.90 699.06   Q 571.58 709.21 553.63 725.88   Q 529.21 748.53 505.53 773.78   Q 503.28 776.18 502.25 778.11"/>
<path stroke="#ffbb04" vector-effect="non-scaling-stroke" d="   M 233.62 912.63   Q 216.29 911.03 208.08 897.46   C 204.37 891.33 202.52 882.86 203.67 875.91   Q 211.01 831.54 227.75 740.11   Q 231.22 721.15 234.50 702.37"/>
<path stroke="#ffe382" vector-effect="non-scaling-stroke" d="   M 305.82 554.74   Q 307.28 558.70 309.39 562.31   Q 311.17 565.35 314.60 568.81   Q 368.98 623.57 434.14 688.78   Q 442.18 696.82 446.09 698.95   C 462.27 707.74 480.79 704.84 493.66 691.67   Q 506.08 678.95 568.92 615.42   C 612.20 571.67 652.37 530.86 688.38 493.63   Q 693.95 487.87 707.85 473.90   C 711.56 470.17 714.90 465.79 718.45 462.99   A 9.43 9.36 88.0 0 0 720.45 460.83   Q 724.72 454.40 725.85 451.48   Q 731.68 436.52 724.78 422.29   C 722.43 417.45 717.79 412.51 714.09 409.16   Q 707.17 402.86 702.34 397.75"/>
<path stroke="#ffa403" vector-effect="non-scaling-stroke" d="   M 225.61 949.03   Q 225.40 940.66 225.83 929.35   Q 226.21 919.19 233.62 912.63"/>
<path stroke="#ffb104" vector-effect="non-scaling-stroke" d="   M 233.62 912.63   Q 242.13 912.95 249.95 909.37   Q 254.84 907.13 263.68 901.96   Q 268.30 899.26 300.23 881.49   C 305.83 878.37 311.20 876.12 315.80 873.04   C 321.54 869.21 327.38 866.65 334.89 862.41   Q 349.95 853.90 360.09 848.14   C 366.45 844.52 374.04 840.68 380.87 836.75   Q 389.19 831.96 396.37 828.07   Q 424.23 812.92 450.70 798.50   Q 456.48 795.36 465.03 790.58   Q 474.78 785.14 479.53 783.00   Q 489.16 778.66 502.25 778.11"/>
<path stroke="#ffa403" vector-effect="non-scaling-stroke" d="   M 502.25 778.11   C 512.89 779.33 521.96 781.63 530.58 786.40   Q 542.41 792.95 551.29 797.57   C 566.28 805.37 580.92 813.87 595.36 821.58   Q 609.46 829.09 618.74 834.39   Q 621.45 835.93 675.64 865.79   C 683.36 870.05 689.87 874.14 697.50 878.23   Q 704.70 882.08 748.11 906.38   Q 754.77 910.10 759.29 911.17   Q 774.29 914.70 786.10 907.12   C 799.39 898.58 801.77 885.07 799.42 870.30   Q 794.09 836.75 788.27 807.15   C 784.69 789.00 782.17 770.08 778.04 751.01   C 775.07 737.29 772.70 719.79 769.87 704.12   Q 761.23 656.23 757.44 632.36   Q 753.90 610.16 766.49 592.23   C 769.39 588.08 775.31 582.31 777.96 579.72   Q 806.58 551.73 856.32 503.56   C 876.62 483.90 902.06 457.95 925.71 434.96   Q 929.08 431.67 931.55 426.66"/>
<path stroke="#ffb104" vector-effect="non-scaling-stroke" d="   M 931.55 426.66   Q 946.34 416.99 946.60 400.55   C 946.79 387.81 940.70 377.59 929.26 372.08"/>
<path stroke="#ffe382" vector-effect="non-scaling-stroke" d="   M 386.13 508.92   Q 405.14 528.81 424.54 548.46   Q 442.31 566.47 450.08 574.58   Q 455.12 579.84 457.86 580.81   Q 463.06 582.63 468.40 580.91   Q 471.33 579.97 478.69 572.32   Q 541.47 507.07 604.57 442.06"/>
</g>
<path xmlns="http://www.w3.org/2000/svg" fill="#fefdfe" d="   M 1000.00 0.00   L 1000.00 1000.00   L 0.00 1000.00   L 0.00 0.00   L 1000.00 0.00   Z   M 118.97 525.54   Q 160.18 565.56 201.43 605.57   Q 209.00 612.90 210.49 623.56   Q 211.18 628.49 209.77 637.40   Q 206.51 658.02 204.46 669.69   Q 183.30 789.92 168.41 876.62   C 165.95 890.93 169.01 908.63 177.92 921.61   Q 181.92 927.43 184.07 929.67   Q 200.96 947.21 225.61 949.03   Q 247.65 950.35 265.89 940.38   Q 372.23 882.27 480.82 823.03   Q 490.93 817.52 495.55 816.61   Q 507.34 814.28 518.28 820.26   C 583.04 855.70 635.98 884.42 724.08 932.65   Q 740.30 941.53 743.75 943.05   C 762.01 951.09 784.01 951.44 801.91 942.68   C 827.14 930.31 840.26 903.38 835.53 875.49   C 827.64 828.96 816.78 765.66 806.04 705.46   Q 799.58 669.28 794.59 638.78   Q 792.86 628.22 793.65 623.21   Q 795.34 612.64 802.72 605.46   Q 951.43 460.96 964.92 448.03   C 975.20 438.18 981.56 430.20 985.82 417.88   C 994.15 393.75 987.42 367.01 967.70 350.45   Q 959.23 343.24 949.10 339.37   Q 942.87 336.98 927.91 334.72   Q 809.57 316.78 692.69 300.22   Q 683.66 298.94 680.91 297.55   Q 675.41 294.78 670.83 290.67   Q 668.29 288.40 663.84 279.50   Q 629.87 211.68 596.29 143.72   Q 581.39 113.93 566.64 84.10   Q 560.54 71.77 556.67 66.84   C 527.09 29.17 471.63 30.83 444.81 70.64   Q 442.80 73.62 433.89 91.47   Q 432.92 93.43 423.41 112.57   Q 384.63 190.58 340.75 278.63   Q 336.32 287.52 334.80 289.13   Q 330.60 293.59 325.24 296.66   Q 321.78 298.64 308.88 300.48   Q 208.68 314.78 74.11 335.03   Q 62.61 336.76 57.23 338.58   C 33.58 346.59 16.79 368.22 14.95 392.99   C 13.61 411.08 20.47 429.18 32.95 441.94   C 44.45 453.70 61.43 469.53 73.83 481.67   Q 96.32 503.68 118.97 525.54   Z"/>
<path xmlns="http://www.w3.org/2000/svg" fill="#ffc805" d="   M 596.29 143.72   C 582.59 140.83 570.31 138.88 556.82 144.38   Q 550.05 130.83 543.26 117.46   Q 535.23 101.66 534.82 101.01   C 525.33 86.42 510.39 79.10 492.80 83.29   Q 484.35 85.30 477.77 91.00   Q 470.82 97.04 468.71 101.26   Q 456.87 124.98 434.03 171.07   Q 404.13 231.41 370.81 298.17   Q 363.73 312.34 359.99 316.58   Q 352.25 325.37 340.72 330.40   Q 335.38 332.73 320.97 334.85   Q 276.55 341.40 250.82 345.47   C 236.19 347.78 218.10 349.80 206.01 351.77   Q 149.26 361.00 88.02 369.24   C 77.21 370.69 68.68 373.96 62.21 382.95   Q 56.13 391.40 57.13 401.91   C 58.16 412.73 63.35 420.45 70.89 427.65   Q 74.09 430.72 74.15 430.80   Q 74.74 431.59 122.11 477.89   Q 135.20 490.68 148.34 503.76   C 137.66 510.28 127.18 516.93 118.97 525.54   Q 96.32 503.68 73.83 481.67   C 61.43 469.53 44.45 453.70 32.95 441.94   C 20.47 429.18 13.61 411.08 14.95 392.99   C 16.79 368.22 33.58 346.59 57.23 338.58   Q 62.61 336.76 74.11 335.03   Q 208.68 314.78 308.88 300.48   Q 321.78 298.64 325.24 296.66   Q 330.60 293.59 334.80 289.13   Q 336.32 287.52 340.75 278.63   Q 384.63 190.58 423.41 112.57   Q 432.92 93.43 433.89 91.47   Q 442.80 73.62 444.81 70.64   C 471.63 30.83 527.09 29.17 556.67 66.84   Q 560.54 71.77 566.64 84.10   Q 581.39 113.93 596.29 143.72   Z"/>
<path xmlns="http://www.w3.org/2000/svg" fill="#ffd82a" d="   M 556.82 144.38   Q 560.24 151.58 563.92 158.77   Q 567.93 166.63 571.08 173.12   Q 579.03 189.52 588.31 207.74   C 591.65 214.31 594.16 220.40 597.09 225.58   Q 599.59 229.98 603.73 238.89   Q 606.52 244.89 613.58 258.40   C 618.64 268.08 622.35 276.41 627.79 287.00   Q 631.71 294.65 637.82 306.93   C 644.12 319.63 657.05 329.52 671.00 332.95   C 676.27 334.24 684.76 334.58 690.16 335.65   Q 695.77 336.77 704.54 337.76   Q 708.22 338.17 727.93 341.11   Q 769.59 347.33 811.18 353.50   C 811.04 359.58 807.05 363.48 802.60 366.82   Q 799.33 369.28 789.25 376.68   C 780.79 382.89 774.42 388.79 763.43 398.43   C 757.30 403.81 749.55 408.21 741.26 407.80   Q 735.74 407.53 728.54 405.13   Q 715.76 400.87 702.34 397.75   Q 695.87 390.63 686.48 387.23   C 676.51 383.62 665.17 385.32 656.16 390.66   Q 652.75 392.68 644.76 400.89   Q 624.68 421.52 604.57 442.06   Q 584.24 453.58 575.23 457.48   C 553.56 466.86 543.41 470.49 529.50 478.89   Q 509.15 491.19 489.30 505.91   C 479.51 513.18 469.02 522.50 461.01 528.59   C 453.35 534.42 445.01 538.39 435.29 535.57   Q 427.24 533.23 418.82 527.05   C 405.26 517.10 395.64 509.24 381.43 502.11   A 0.03 0.03 0.0 0 0 381.39 502.16   L 386.13 508.92   Q 385.54 508.23 385.01 507.51   Q 379.32 499.80 370.48 495.23   C 359.64 489.62 347.96 490.36 337.15 495.86   Q 332.79 498.09 326.81 504.31   Q 321.09 510.27 316.09 514.97   Q 310.78 519.95 308.65 524.12   C 303.40 534.42 301.72 543.87 305.82 554.74   Q 304.09 550.35 301.20 547.27   A 0.52 0.52 0.0 0 0 300.31 547.52   C 298.75 554.84 298.99 561.83 302.39 569.22   Q 306.92 579.09 308.76 581.58   Q 317.97 594.05 320.55 597.89   C 326.10 606.11 331.47 615.59 330.90 624.90   C 330.12 637.56 318.63 645.77 308.09 651.94   Q 290.58 662.18 278.08 669.63   Q 273.40 672.41 269.11 675.40   Q 261.38 680.77 260.43 681.60   Q 247.97 692.46 234.50 702.37   Q 244.96 645.40 246.99 630.48   C 248.94 616.12 245.49 600.78 235.75 589.93   Q 227.17 580.37 220.61 574.20   C 209.58 563.83 201.77 555.66 182.95 537.40   C 168.89 523.75 160.32 515.15 148.34 503.76   Q 135.20 490.68 122.11 477.89   Q 74.74 431.59 74.15 430.80   Q 74.09 430.72 70.89 427.65   C 63.35 420.45 58.16 412.73 57.13 401.91   Q 56.13 391.40 62.21 382.95   C 68.68 373.96 77.21 370.69 88.02 369.24   Q 149.26 361.00 206.01 351.77   C 218.10 349.80 236.19 347.78 250.82 345.47   Q 276.55 341.40 320.97 334.85   Q 335.38 332.73 340.72 330.40   Q 352.25 325.37 359.99 316.58   Q 363.73 312.34 370.81 298.17   Q 404.13 231.41 434.03 171.07   Q 456.87 124.98 468.71 101.26   Q 470.82 97.04 477.77 91.00   Q 484.35 85.30 492.80 83.29   C 510.39 79.10 525.33 86.42 534.82 101.01   Q 535.23 101.66 543.26 117.46   Q 550.05 130.83 556.82 144.38   Z"/>
<path xmlns="http://www.w3.org/2000/svg" fill="#ffae03" d="   M 596.29 143.72   Q 629.87 211.68 663.84 279.50   Q 668.29 288.40 670.83 290.67   Q 675.41 294.78 680.91 297.55   Q 683.66 298.94 692.69 300.22   Q 809.57 316.78 927.91 334.72   Q 942.87 336.98 949.10 339.37   Q 959.23 343.24 967.70 350.45   C 957.23 350.90 948.27 353.06 940.25 359.93   Q 934.76 364.64 929.26 372.08   L 924.84 370.38   A 5.00 4.95 59.4 0 0 923.77 370.10   L 811.18 353.50   Q 769.59 347.33 727.93 341.11   Q 708.22 338.17 704.54 337.76   Q 695.77 336.77 690.16 335.65   C 684.76 334.58 676.27 334.24 671.00 332.95   C 657.05 329.52 644.12 319.63 637.82 306.93   Q 631.71 294.65 627.79 287.00   C 622.35 276.41 618.64 268.08 613.58 258.40   Q 606.52 244.89 603.73 238.89   Q 599.59 229.98 597.09 225.58   C 594.16 220.40 591.65 214.31 588.31 207.74   Q 579.03 189.52 571.08 173.12   Q 567.93 166.63 563.92 158.77   Q 560.24 151.58 556.82 144.38   C 570.31 138.88 582.59 140.83 596.29 143.72   Z"/>
<path xmlns="http://www.w3.org/2000/svg" fill="#ff9a03" d="   M 967.70 350.45   C 987.42 367.01 994.15 393.75 985.82 417.88   C 981.56 430.20 975.20 438.18 964.92 448.03   Q 951.43 460.96 802.72 605.46   Q 795.34 612.64 793.65 623.21   Q 792.86 628.22 794.59 638.78   Q 799.58 669.28 806.04 705.46   C 816.78 765.66 827.64 828.96 835.53 875.49   C 840.26 903.38 827.14 930.31 801.91 942.68   C 784.01 951.44 762.01 951.09 743.75 943.05   Q 740.30 941.53 724.08 932.65   C 635.98 884.42 583.04 855.70 518.28 820.26   Q 507.34 814.28 495.55 816.61   Q 490.93 817.52 480.82 823.03   Q 372.23 882.27 265.89 940.38   Q 247.65 950.35 225.61 949.03   Q 225.40 940.66 225.83 929.35   Q 226.21 919.19 233.62 912.63   Q 242.13 912.95 249.95 909.37   Q 254.84 907.13 263.68 901.96   Q 268.30 899.26 300.23 881.49   C 305.83 878.37 311.20 876.12 315.80 873.04   C 321.54 869.21 327.38 866.65 334.89 862.41   Q 349.95 853.90 360.09 848.14   C 366.45 844.52 374.04 840.68 380.87 836.75   Q 389.19 831.96 396.37 828.07   Q 424.23 812.92 450.70 798.50   Q 456.48 795.36 465.03 790.58   Q 474.78 785.14 479.53 783.00   Q 489.16 778.66 502.25 778.11   C 512.89 779.33 521.96 781.63 530.58 786.40   Q 542.41 792.95 551.29 797.57   C 566.28 805.37 580.92 813.87 595.36 821.58   Q 609.46 829.09 618.74 834.39   Q 621.45 835.93 675.64 865.79   C 683.36 870.05 689.87 874.14 697.50 878.23   Q 704.70 882.08 748.11 906.38   Q 754.77 910.10 759.29 911.17   Q 774.29 914.70 786.10 907.12   C 799.39 898.58 801.77 885.07 799.42 870.30   Q 794.09 836.75 788.27 807.15   C 784.69 789.00 782.17 770.08 778.04 751.01   C 775.07 737.29 772.70 719.79 769.87 704.12   Q 761.23 656.23 757.44 632.36   Q 753.90 610.16 766.49 592.23   C 769.39 588.08 775.31 582.31 777.96 579.72   Q 806.58 551.73 856.32 503.56   C 876.62 483.90 902.06 457.95 925.71 434.96   Q 929.08 431.67 931.55 426.66   Q 946.34 416.99 946.60 400.55   C 946.79 387.81 940.70 377.59 929.26 372.08   Q 934.76 364.64 940.25 359.93   C 948.27 353.06 957.23 350.90 967.70 350.45   Z"/>
<path xmlns="http://www.w3.org/2000/svg" fill="#ffc805" d="   M 929.26 372.08   C 940.70 377.59 946.79 387.81 946.60 400.55   Q 946.34 416.99 931.55 426.66   Q 929.10 427.75 926.92 428.98   Q 886.92 451.53 878.38 456.36   C 873.61 459.06 868.59 462.38 863.96 464.92   C 845.77 474.92 829.13 485.28 810.85 495.98   C 792.92 506.46 778.99 518.07 762.15 531.73   Q 753.37 538.85 744.33 547.31   Q 733.26 557.66 699.79 588.04   Q 694.07 593.24 661.12 624.13   Q 629.29 653.97 604.91 677.41   C 596.22 685.76 589.95 691.15 581.90 699.06   Q 571.58 709.21 553.63 725.88   Q 529.21 748.53 505.53 773.78   Q 503.28 776.18 502.25 778.11   Q 489.16 778.66 479.53 783.00   Q 474.78 785.14 465.03 790.58   Q 456.48 795.36 450.70 798.50   Q 424.23 812.92 396.37 828.07   Q 389.19 831.96 380.87 836.75   C 374.04 840.68 366.45 844.52 360.09 848.14   Q 349.95 853.90 334.89 862.41   C 327.38 866.65 321.54 869.21 315.80 873.04   C 311.20 876.12 305.83 878.37 300.23 881.49   Q 268.30 899.26 263.68 901.96   Q 254.84 907.13 249.95 909.37   Q 242.13 912.95 233.62 912.63   Q 216.29 911.03 208.08 897.46   C 204.37 891.33 202.52 882.86 203.67 875.91   Q 211.01 831.54 227.75 740.11   Q 231.22 721.15 234.50 702.37   Q 247.97 692.46 260.43 681.60   Q 261.38 680.77 269.11 675.40   Q 273.40 672.41 278.08 669.63   Q 290.58 662.18 308.09 651.94   C 318.63 645.77 330.12 637.56 330.90 624.90   C 331.47 615.59 326.10 606.11 320.55 597.89   Q 317.97 594.05 308.76 581.58   Q 306.92 579.09 302.39 569.22   C 298.99 561.83 298.75 554.84 300.31 547.52   A 0.52 0.52 0.0 0 1 301.20 547.27   Q 304.09 550.35 305.82 554.74   Q 307.28 558.70 309.39 562.31   Q 311.17 565.35 314.60 568.81   Q 368.98 623.57 434.14 688.78   Q 442.18 696.82 446.09 698.95   C 462.27 707.74 480.79 704.84 493.66 691.67   Q 506.08 678.95 568.92 615.42   C 612.20 571.67 652.37 530.86 688.38 493.63   Q 693.95 487.87 707.85 473.90   C 711.56 470.17 714.90 465.79 718.45 462.99   A 9.43 9.36 88.0 0 0 720.45 460.83   Q 724.72 454.40 725.85 451.48   Q 731.68 436.52 724.78 422.29   C 722.43 417.45 717.79 412.51 714.09 409.16   Q 707.17 402.86 702.34 397.75   Q 715.76 400.87 728.54 405.13   Q 735.74 407.53 741.26 407.80   C 749.55 408.21 757.30 403.81 763.43 398.43   C 774.42 388.79 780.79 382.89 789.25 376.68   Q 799.33 369.28 802.60 366.82   C 807.05 363.48 811.04 359.58 811.18 353.50   L 923.77 370.10   A 5.00 4.95 59.4 0 1 924.84 370.38   L 929.26 372.08   Z"/>
<path xmlns="http://www.w3.org/2000/svg" fill="#fefdfe" d="   M 702.34 397.75   Q 707.17 402.86 714.09 409.16   C 717.79 412.51 722.43 417.45 724.78 422.29   Q 731.68 436.52 725.85 451.48   Q 724.72 454.40 720.45 460.83   A 9.43 9.36 88.0 0 1 718.45 462.99   C 714.90 465.79 711.56 470.17 707.85 473.90   Q 693.95 487.87 688.38 493.63   C 652.37 530.86 612.20 571.67 568.92 615.42   Q 506.08 678.95 493.66 691.67   C 480.79 704.84 462.27 707.74 446.09 698.95   Q 442.18 696.82 434.14 688.78   Q 368.98 623.57 314.60 568.81   Q 311.17 565.35 309.39 562.31   Q 307.28 558.70 305.82 554.74   C 301.72 543.87 303.40 534.42 308.65 524.12   Q 310.78 519.95 316.09 514.97   Q 321.09 510.27 326.81 504.31   Q 332.79 498.09 337.15 495.86   C 347.96 490.36 359.64 489.62 370.48 495.23   Q 379.32 499.80 385.01 507.51   Q 385.54 508.23 386.13 508.92   Q 405.14 528.81 424.54 548.46   Q 442.31 566.47 450.08 574.58   Q 455.12 579.84 457.86 580.81   Q 463.06 582.63 468.40 580.91   Q 471.33 579.97 478.69 572.32   Q 541.47 507.07 604.57 442.06   Q 624.68 421.52 644.76 400.89   Q 652.75 392.68 656.16 390.66   C 665.17 385.32 676.51 383.62 686.48 387.23   Q 695.87 390.63 702.34 397.75   Z"/>
<path xmlns="http://www.w3.org/2000/svg" fill="#ffae03" d="   M 931.55 426.66   Q 929.08 431.67 925.71 434.96   C 902.06 457.95 876.62 483.90 856.32 503.56   Q 806.58 551.73 777.96 579.72   C 775.31 582.31 769.39 588.08 766.49 592.23   Q 753.90 610.16 757.44 632.36   Q 761.23 656.23 769.87 704.12   C 772.70 719.79 775.07 737.29 778.04 751.01   C 782.17 770.08 784.69 789.00 788.27 807.15   Q 794.09 836.75 799.42 870.30   C 801.77 885.07 799.39 898.58 786.10 907.12   Q 774.29 914.70 759.29 911.17   Q 754.77 910.10 748.11 906.38   Q 704.70 882.08 697.50 878.23   C 689.87 874.14 683.36 870.05 675.64 865.79   Q 621.45 835.93 618.74 834.39   Q 609.46 829.09 595.36 821.58   C 580.92 813.87 566.28 805.37 551.29 797.57   Q 542.41 792.95 530.58 786.40   C 521.96 781.63 512.89 779.33 502.25 778.11   Q 503.28 776.18 505.53 773.78   Q 529.21 748.53 553.63 725.88   Q 571.58 709.21 581.90 699.06   C 589.95 691.15 596.22 685.76 604.91 677.41   Q 629.29 653.97 661.12 624.13   Q 694.07 593.24 699.79 588.04   Q 733.26 557.66 744.33 547.31   Q 753.37 538.85 762.15 531.73   C 778.99 518.07 792.92 506.46 810.85 495.98   C 829.13 485.28 845.77 474.92 863.96 464.92   C 868.59 462.38 873.61 459.06 878.38 456.36   Q 886.92 451.53 926.92 428.98   Q 929.10 427.75 931.55 426.66   Z"/>
<path xmlns="http://www.w3.org/2000/svg" fill="#ffc805" d="   M 604.57 442.06   Q 541.47 507.07 478.69 572.32   Q 471.33 579.97 468.40 580.91   Q 463.06 582.63 457.86 580.81   Q 455.12 579.84 450.08 574.58   Q 442.31 566.47 424.54 548.46   Q 405.14 528.81 386.13 508.92   L 381.39 502.16   A 0.03 0.03 0.0 0 1 381.43 502.11   C 395.64 509.24 405.26 517.10 418.82 527.05   Q 427.24 533.23 435.29 535.57   C 445.01 538.39 453.35 534.42 461.01 528.59   C 469.02 522.50 479.51 513.18 489.30 505.91   Q 509.15 491.19 529.50 478.89   C 543.41 470.49 553.56 466.86 575.23 457.48   Q 584.24 453.58 604.57 442.06   Z"/>
<path xmlns="http://www.w3.org/2000/svg" fill="#ffae03" d="   M 148.34 503.76   C 160.32 515.15 168.89 523.75 182.95 537.40   C 201.77 555.66 209.58 563.83 220.61 574.20   Q 227.17 580.37 235.75 589.93   C 245.49 600.78 248.94 616.12 246.99 630.48   Q 244.96 645.40 234.50 702.37   Q 231.22 721.15 227.75 740.11   Q 211.01 831.54 203.67 875.91   C 202.52 882.86 204.37 891.33 208.08 897.46   Q 216.29 911.03 233.62 912.63   Q 226.21 919.19 225.83 929.35   Q 225.40 940.66 225.61 949.03   Q 200.96 947.21 184.07 929.67   Q 181.92 927.43 177.92 921.61   C 169.01 908.63 165.95 890.93 168.41 876.62   Q 183.30 789.92 204.46 669.69   Q 206.51 658.02 209.77 637.40   Q 211.18 628.49 210.49 623.56   Q 209.00 612.90 201.43 605.57   Q 160.18 565.56 118.97 525.54   C 127.18 516.93 137.66 510.28 148.34 503.76   Z"/>
</g></g></g></g></svg>